<?xml version="1.0" encoding="UTF-8" standalone="no"?>
<svg
   xmlns:dc="http://purl.org/dc/elements/1.1/"
   xmlns:cc="http://creativecommons.org/ns#"
   xmlns:rdf="http://www.w3.org/1999/02/22-rdf-syntax-ns#"
   xmlns:svg="http://www.w3.org/2000/svg"
   xmlns="http://www.w3.org/2000/svg"
   version="1.1"
   id="svg4184"
   width="21.202164pt"
   viewBox="0 -1 21.202164 21.1504"
   height="21.1504pt">
  <metadata
     id="metadata4192">
    <rdf:RDF>
      <cc:Work
         rdf:about="">
        <dc:format>image/svg+xml</dc:format>
        <dc:type
           rdf:resource="http://purl.org/dc/dcmitype/StillImage" />
        <dc:title></dc:title>
      </cc:Work>
    </rdf:RDF>
  </metadata>
  <defs
     id="defs4190" />
  <path
     style="fill:#ff574a;fill-opacity:1"
     id="path4186"
     d="m 8.4684421,17.99107 0,2.14736 -0.5192485,-0.41944 C 7.8689608,19.65412 5.9600349,18.1043 4.024257,15.88189 1.3539284,12.81605 0,10.06404 0,7.70251 L 0,7.46844 C 0,2.79893 3.7989258,-1 8.4684421,-1 13.137958,-1 16.936884,2.79893 16.936884,7.46844 l 0,0.23407 c 0,0.19832 -0.01051,0.39971 -0.0296,0.60352 L 15.251189,6.7952 C 14.911979,3.35166 11.999658,0.65238 8.4684441,0.65238 4.71012,0.65238 1.652377,3.71012 1.652377,7.46844 l 0,0.23407 c 0,3.99061 5.1416928,8.82156 6.8160671,10.28856 z m 5.0810329,-1.18683 2.478482,0 0,-2.47848 -2.478482,0 z M 8.4684421,3.95712 c 1.9361019,0 3.5113169,1.57522 3.5113169,3.51132 0,1.9361 -1.575215,3.51132 -3.5113169,3.51132 -1.9361015,0 -3.5113171,-1.57522 -3.5113171,-3.51132 0,-1.9361 1.5752156,-3.51132 3.5113171,-3.51132 z m 0,1.65238 C 7.4433711,5.6095 6.6095,6.44337 6.6095,7.46844 c 0,1.02491 0.8338711,1.85894 1.8589421,1.85894 1.0249092,0 1.8589419,-0.83403 1.8589419,-1.85894 0,-1.02507 -0.8340327,-1.85894 -1.8589419,-1.85894 z m 11.6201679,10.07197 -0.464574,-0.42381 0,2.65269 c 0,1.2352 -1.005013,2.24005 -2.24021,2.24005 l -5.231469,0 c -1.235197,0 -2.2402099,-1.00485 -2.2402099,-2.24005 l 0,-2.65269 -0.4645738,0.42381 -1.1135535,-1.22064 6.4339912,-5.86978 6.434152,5.86978 z m -2.116949,-1.93125 -3.20365,-2.92251 -3.203489,2.92251 0,4.15997 c 0,0.32417 0.263668,0.58783 0.587835,0.58783 l 5.231469,0 c 0.324167,0 0.587835,-0.26366 0.587835,-0.58783 z m 0,0" />
</svg>
