<?xml version="1.0" encoding="UTF-8" standalone="no"?>
<svg
   xmlns:dc="http://purl.org/dc/elements/1.1/"
   xmlns:cc="http://creativecommons.org/ns#"
   xmlns:rdf="http://www.w3.org/1999/02/22-rdf-syntax-ns#"
   xmlns:svg="http://www.w3.org/2000/svg"
   xmlns="http://www.w3.org/2000/svg"
   height="22.032"
   width="27.310999"
   xml:space="preserve"
   viewBox="0 0 27.310998 22.031999"
   y="0px"
   x="0px"
   id="Capa_1"
   version="1.1"><metadata
     id="metadata3558"><rdf:RDF><cc:Work
         rdf:about=""><dc:format>image/svg+xml</dc:format><dc:type
           rdf:resource="http://purl.org/dc/dcmitype/StillImage" /><dc:title></dc:title></cc:Work></rdf:RDF></metadata><defs
     id="defs3556" /><g
     style="fill:#ffffff;fill-opacity:1"
     transform="matrix(0.05598779,0,0,0.05706834,0,-2.9030413)"
     id="g3520"><path
       style="fill:#ffffff;fill-opacity:1"
       id="path3522"
       d="M 480.6,296.133 416,91.033 c -9.1,-29.9 -40.9,-46.8 -70.8,-37.7 -7.1,2.2 -11.2,9.7 -9,16.8 2.2,7.1 9.7,11.2 16.8,9 15.7,-4.8 32.3,4.1 37.1,19.8 l 0,0.1 46.2,146.9 c -14.7,-8.3 -31.6,-13 -49.6,-13 -51.8,0 -94.6,39.2 -100.4,89.4 l -85,0 c -6.6,-49.4 -49,-87.6 -100.2,-87.6 -18.1,0 -35.1,4.8 -49.8,13.1 l 46.8,-148.8 0,-0.1 c 4.8,-15.7 21.4,-24.6 37.1,-19.8 7.1,2.2 14.7,-1.9 16.8,-9 2.2,-7.1 -1.9,-14.7 -9,-16.8 -29.9,-9.1 -61.6,7.8 -70.8,37.7 l -64.4,205.3 c -0.2,0.6 -0.3,1.1 -0.4,1.7 -4.7,11.7 -7.4,24.5 -7.4,37.8 0,55.7 45.4,101.1 101.1,101.1 51.2,0 93.6,-38.2 100.2,-87.6 l 85.5,0 c 7.4,48.5 49.4,85.8 99.9,85.8 55.7,0 101.1,-45.4 101.1,-101.1 0.1,-13.4 -2.5,-26.2 -7.2,-37.9 z m -379.4,113.8 c -40.9,0 -74.1,-33.2 -74.1,-74.1 0,-40.9 33.2,-74.1 74.1,-74.1 40.9,0 74.1,33.2 74.1,74.1 0,40.9 -33.3,74.1 -74.1,74.1 z m 285.6,-1.8 c -40.9,0 -74.1,-33.2 -74.1,-74.1 0,-40.9 33.3,-74.1 74.1,-74.1 40.8,0 74.1,33.2 74.1,74.1 0,40.9 -33.2,74.1 -74.1,74.1 z" /></g><g
     transform="translate(-206.74607,-247.88549)"
     id="g3524" /><g
     transform="translate(-206.74607,-247.88549)"
     id="g3526" /><g
     transform="translate(-206.74607,-247.88549)"
     id="g3528" /><g
     transform="translate(-206.74607,-247.88549)"
     id="g3530" /><g
     transform="translate(-206.74607,-247.88549)"
     id="g3532" /><g
     transform="translate(-206.74607,-247.88549)"
     id="g3534" /><g
     transform="translate(-206.74607,-247.88549)"
     id="g3536" /><g
     transform="translate(-206.74607,-247.88549)"
     id="g3538" /><g
     transform="translate(-206.74607,-247.88549)"
     id="g3540" /><g
     transform="translate(-206.74607,-247.88549)"
     id="g3542" /><g
     transform="translate(-206.74607,-247.88549)"
     id="g3544" /><g
     transform="translate(-206.74607,-247.88549)"
     id="g3546" /><g
     transform="translate(-206.74607,-247.88549)"
     id="g3548" /><g
     transform="translate(-206.74607,-247.88549)"
     id="g3550" /><g
     transform="translate(-206.74607,-247.88549)"
     id="g3552" /></svg>