<?xml version="1.0" encoding="UTF-8" standalone="no"?>
<svg
   xmlns:dc="http://purl.org/dc/elements/1.1/"
   xmlns:cc="http://creativecommons.org/ns#"
   xmlns:rdf="http://www.w3.org/1999/02/22-rdf-syntax-ns#"
   xmlns:svg="http://www.w3.org/2000/svg"
   xmlns="http://www.w3.org/2000/svg"
   height="30.559999"
   width="30.559237"
   xml:space="preserve"
   viewBox="0 0 30.559237 30.56"
   y="0px"
   x="0px"
   id="Capa_1"
   version="1.1"><metadata
     id="metadata3466"><rdf:RDF><cc:Work
         rdf:about=""><dc:format>image/svg+xml</dc:format><dc:type
           rdf:resource="http://purl.org/dc/dcmitype/StillImage" /><dc:title></dc:title></cc:Work></rdf:RDF></metadata><defs
     id="defs3464" /><g
     transform="matrix(0.06359244,0,0,0.06359244,-3.6486385e-4,0)"
     style="fill:#ff574a;fill-opacity:1"
     id="g3422"><g
       style="fill:#ff574a;fill-opacity:1"
       id="g3424"><path
         style="fill:#ff574a;fill-opacity:1"
         id="path3426"
         d="m 365.354,317.9 c -15.7,-15.5 -35.3,-15.5 -50.9,0 -11.9,11.8 -23.8,23.6 -35.5,35.6 -3.2,3.3 -5.9,4 -9.8,1.8 -7.7,-4.2 -15.9,-7.6 -23.3,-12.2 -34.5,-21.7 -63.4,-49.6 -89,-81 -12.7,-15.6 -24,-32.3 -31.9,-51.1 -1.6,-3.8 -1.3,-6.3 1.8,-9.4 11.9,-11.5 23.5,-23.3 35.2,-35.1 16.3,-16.4 16.3,-35.6 -0.1,-52.1 -9.3,-9.4 -18.6,-18.6 -27.9,-28 -9.6,-9.6 -19.1,-19.3 -28.8,-28.8 -15.7,-15.3 -35.3,-15.3 -50.9,0.1 -12,11.8 -23.5,23.9 -35.7,35.5 -11.3,10.7 -17,23.8 -18.2,39.1 -1.9,24.9 4.2,48.4 12.8,71.3 17.6,47.4 44.4,89.5 76.9,128.1 43.9,52.2 96.3,93.5 157.6,123.3 27.6,13.4 56.2,23.7 87.3,25.4 21.4,1.2 40,-4.2 54.9,-20.9 10.2,-11.4 21.7,-21.8 32.5,-32.7 16,-16.2 16.1,-35.8 0.2,-51.8 -19,-19.1 -38.1,-38.1 -57.2,-57.1 z" /><path
         style="fill:#ff574a;fill-opacity:1"
         id="path3428"
         d="m 346.254,238.2 36.9,-6.3 c -5.8,-33.9 -21.8,-64.6 -46.1,-89 -25.7,-25.7 -58.2,-41.9 -94,-46.9 l -5.2,37.1 c 27.7,3.9 52.9,16.4 72.8,36.3 18.8,18.8 31.1,42.6 35.6,68.8 z" /><path
         style="fill:#ff574a;fill-opacity:1"
         id="path3430"
         d="m 403.954,77.8 c -42.6,-42.6 -96.5,-69.5 -156,-77.8 l -5.2,37.1 c 51.4,7.2 98,30.5 134.8,67.2 34.9,34.9 57.8,79 66.1,127.5 l 36.9,-6.3 c -9.7,-56.2 -36.2,-107.2 -76.6,-147.7 z" /></g></g><g
     transform="translate(-0.00573753,-450.00027)"
     id="g3432" /><g
     transform="translate(-0.00573753,-450.00027)"
     id="g3434" /><g
     transform="translate(-0.00573753,-450.00027)"
     id="g3436" /><g
     transform="translate(-0.00573753,-450.00027)"
     id="g3438" /><g
     transform="translate(-0.00573753,-450.00027)"
     id="g3440" /><g
     transform="translate(-0.00573753,-450.00027)"
     id="g3442" /><g
     transform="translate(-0.00573753,-450.00027)"
     id="g3444" /><g
     transform="translate(-0.00573753,-450.00027)"
     id="g3446" /><g
     transform="translate(-0.00573753,-450.00027)"
     id="g3448" /><g
     transform="translate(-0.00573753,-450.00027)"
     id="g3450" /><g
     transform="translate(-0.00573753,-450.00027)"
     id="g3452" /><g
     transform="translate(-0.00573753,-450.00027)"
     id="g3454" /><g
     transform="translate(-0.00573753,-450.00027)"
     id="g3456" /><g
     transform="translate(-0.00573753,-450.00027)"
     id="g3458" /><g
     transform="translate(-0.00573753,-450.00027)"
     id="g3460" /></svg>