<?xml version="1.0" encoding="UTF-8" standalone="no"?>
<svg
   xmlns:dc="http://purl.org/dc/elements/1.1/"
   xmlns:cc="http://creativecommons.org/ns#"
   xmlns:rdf="http://www.w3.org/1999/02/22-rdf-syntax-ns#"
   xmlns:svg="http://www.w3.org/2000/svg"
   xmlns="http://www.w3.org/2000/svg"
   version="1.1"
   width="36.361122"
   viewBox="0 0 36.423334 32.05475"
   height="32"
   enable-background="new 0 0 512.876 512.876"
   id="Layer_1">
  <metadata
     id="metadata4246">
    <rdf:RDF>
      <cc:Work
         rdf:about="">
        <dc:format>image/svg+xml</dc:format>
        <dc:type
           rdf:resource="http://purl.org/dc/dcmitype/StillImage" />
        <dc:title></dc:title>
      </cc:Work>
    </rdf:RDF>
  </metadata>
  <defs
     id="defs4244" />
  <g
     transform="matrix(0.07101781,0,0,0.07101781,0,-2.1842238)"
     style="fill:#0063a7;fill-opacity:1"
     id="g4248">
    <g
       style="fill:#0063a7;fill-opacity:1"
       id="g4212">
      <g
         style="fill:#0063a7;fill-opacity:1"
         id="g4214">
        <path
           style="fill:#0063a7;fill-opacity:1"
           d="M 481.883,247.428 C 476.936,127.07 377.975,30.756 255.931,30.756 c -30.513,0 -60.136,5.985 -88.045,17.79 l -6.907,2.922 31.165,73.68 6.908,-2.921 c 52.259,-22.105 115.692,-12.572 159.549,30.77 25.723,25.421 40.888,58.712 43.177,94.432 l -30.468,0 70.783,100.741 70.783,-100.741 -30.993,0 z m -81.701,15 16.982,0 -0.097,-7.596 C 415.943,166.809 344.122,95.756 255.931,95.756 c -19.236,0 -37.953,3.325 -55.748,9.894 L 180.689,59.562 c 74.474,-28.442 163.159,-13.355 224.556,48.042 39.374,39.374 61.331,91.718 61.825,147.39 l 0.066,7.434 16.869,0 -41.911,59.649 z"
           id="path4216" />
        <path
           style="fill:#0063a7;fill-opacity:1"
           d="m 313.823,390.614 c -52.251,22.109 -115.703,12.564 -159.552,-30.77 -25.722,-25.42 -40.886,-58.712 -43.175,-94.433 l 30.466,0 L 70.775,164.675 0,265.411 l 30.991,0 c 2.404,58.523 27.141,114.573 72.344,156.508 l 10.201,-10.997 C 70.45,370.952 46.321,316.26 45.805,257.844 l -0.065,-7.434 -16.869,0 41.905,-59.645 41.913,59.645 -16.98,0 0.097,7.596 c 1.123,88.026 72.94,159.074 161.129,159.074 19.25,0 37.969,-3.324 55.756,-9.891 l 19.493,46.092 c -66.46,25.374 -146.395,16.664 -207.665,-32.855 l -9.429,11.666 c 68.079,55.023 157.266,62.919 229.896,32.205 l 6.908,-2.921 -31.163,-73.687 z"
           id="path4218" />
        <path
           style="fill:#0063a7;fill-opacity:1"
           d="m 256.436,178.693 27.956,46.398 12.848,-7.741 -40.804,-67.721 -59.813,99.27 c -28.74,47.678 6.134,109.363 62.456,107.238 53.271,-1.794 84.962,-61.134 57.172,-107.236 l -11.03,-18.31 -12.849,7.74 11.031,18.312 c 22.525,37.368 -4.47,86.137 -49.104,84.502 -41.821,-1.409 -66.712,-48.198 -44.829,-84.504 z"
           id="path4220" />
      </g>
      <g
         style="fill:#0063a7;fill-opacity:1"
         id="g4222">
        <path
           style="fill:#0063a7;fill-opacity:1"
           d="m 351.796,103.038 c -4.022,-2.487 -8.236,-4.851 -12.524,-7.025 l 6.782,-13.379 c 4.665,2.365 9.252,4.938 13.633,7.647 z M 312.637,85.104 c -4.54,-1.457 -9.217,-2.766 -13.901,-3.89 l 3.501,-14.586 c 5.047,1.211 10.089,2.623 14.984,4.194 z M 270.23,76.54 c -4.785,-0.433 -9.642,-0.697 -14.437,-0.786 l 0.275,-14.997 c 5.153,0.094 10.373,0.378 15.513,0.844 z"
           id="path4224" />
      </g>
      <g
         style="fill:#0063a7;fill-opacity:1"
         id="g4226">
        <path
           style="fill:#0063a7;fill-opacity:1"
           d="m 283.57,429.921 15,0 0,15 -15,0 z"
           id="path4228" />
      </g>
      <g
         style="fill:#0063a7;fill-opacity:1"
         id="g4230">
        <path
           style="fill:#0063a7;fill-opacity:1"
           d="m 62.57,228.921 15,0 0,15 -15,0 z"
           id="path4232" />
      </g>
      <g
         style="fill:#0063a7;fill-opacity:1"
         id="g4234">
        <path
           style="fill:#0063a7;fill-opacity:1"
           d="m 434.436,266.921 15,0 0,15 -15,0 z"
           id="path4236" />
      </g>
      <g
         style="fill:#0063a7;fill-opacity:1"
         id="g4238">
        <path
           style="fill:#0063a7;fill-opacity:1"
           d="m 249.003,283.581 15,0 0,15 -15,0 z"
           id="path4240" />
      </g>
    </g>
  </g>
</svg>
