<?xml version="1.0" encoding="UTF-8" standalone="no"?>
<svg
   xmlns:dc="http://purl.org/dc/elements/1.1/"
   xmlns:cc="http://creativecommons.org/ns#"
   xmlns:rdf="http://www.w3.org/1999/02/22-rdf-syntax-ns#"
   xmlns:svg="http://www.w3.org/2000/svg"
   xmlns="http://www.w3.org/2000/svg"
   height="16.998999"
   width="16.998995"
   xml:space="preserve"
   viewBox="0 0 16.998995 16.998999"
   y="0px"
   x="0px"
   id="Capa_1"
   version="1.1"><metadata
     id="metadata4258"><rdf:RDF><cc:Work
         rdf:about=""><dc:format>image/svg+xml</dc:format><dc:type
           rdf:resource="http://purl.org/dc/dcmitype/StillImage" /><dc:title></dc:title></cc:Work></rdf:RDF></metadata><defs
     id="defs4256" /><g
     transform="scale(0.03320125,0.03320125)"
     style="fill:#888888;fill-opacity:1"
     id="g4218"><g
       style="fill:#888888;fill-opacity:1"
       id="g4220"><path
         style="fill:#888888;fill-opacity:1"
         id="path4222"
         d="M 508.874,478.708 360.142,329.976 c 28.21,-34.827 45.191,-79.103 45.191,-127.309 C 405.333,90.917 314.416,0 202.666,0 90.916,0 0,90.917 0,202.667 c 0,111.75 90.917,202.667 202.667,202.667 48.206,0 92.482,-16.982 127.309,-45.191 l 148.732,148.732 c 4.167,4.165 10.919,4.165 15.086,0 l 15.081,-15.082 c 4.165,-4.166 4.165,-10.92 -10e-4,-15.085 z M 202.667,362.667 c -88.229,0 -160,-71.771 -160,-160 0,-88.229 71.771,-160 160,-160 88.229,0 160,71.771 160,160 0,88.229 -71.771,160 -160,160 z" /></g></g><g
     transform="translate(0,-494.99975)"
     id="g4224" /><g
     transform="translate(0,-494.99975)"
     id="g4226" /><g
     transform="translate(0,-494.99975)"
     id="g4228" /><g
     transform="translate(0,-494.99975)"
     id="g4230" /><g
     transform="translate(0,-494.99975)"
     id="g4232" /><g
     transform="translate(0,-494.99975)"
     id="g4234" /><g
     transform="translate(0,-494.99975)"
     id="g4236" /><g
     transform="translate(0,-494.99975)"
     id="g4238" /><g
     transform="translate(0,-494.99975)"
     id="g4240" /><g
     transform="translate(0,-494.99975)"
     id="g4242" /><g
     transform="translate(0,-494.99975)"
     id="g4244" /><g
     transform="translate(0,-494.99975)"
     id="g4246" /><g
     transform="translate(0,-494.99975)"
     id="g4248" /><g
     transform="translate(0,-494.99975)"
     id="g4250" /><g
     transform="translate(0,-494.99975)"
     id="g4252" /></svg>