<?xml version="1.0" encoding="UTF-8" standalone="no"?>
<svg
   xmlns:dc="http://purl.org/dc/elements/1.1/"
   xmlns:cc="http://creativecommons.org/ns#"
   xmlns:rdf="http://www.w3.org/1999/02/22-rdf-syntax-ns#"
   xmlns:svg="http://www.w3.org/2000/svg"
   xmlns="http://www.w3.org/2000/svg"
   height="32"
   width="28.894665"
   xml:space="preserve"
   viewBox="0 0 28.894665 32.000001"
   y="0px"
   x="0px"
   id="Capa_1"
   version="1.1"><metadata
     id="metadata4270"><rdf:RDF><cc:Work
         rdf:about=""><dc:format>image/svg+xml</dc:format><dc:type
           rdf:resource="http://purl.org/dc/dcmitype/StillImage" /><dc:title></dc:title></cc:Work></rdf:RDF></metadata><defs
     id="defs4268" /><g
     transform="matrix(0.06670094,0,0,0.06670094,-1.5526645,2.3322714e-5)"
     style="fill:#0063a7;fill-opacity:1"
     id="g4272"><g
       id="g4224"
       style="fill:#0063a7;fill-opacity:1"><g
         id="g4226"
         style="fill:#0063a7;fill-opacity:1"><path
           d="m 456.201,262.725 c -0.001,-0.004 -0.002,-0.008 -0.003,-0.011 l 0.008,0 -8.304,-30.912 c -10.333,-38.374 -49.78,-61.14 -88.176,-50.888 l -176.448,47.296 0,-96.24 c 0,-3.589 2.391,-6.739 5.848,-7.704 L 314.27,89.297 c 29.711,-8.341 47.1,-39.119 38.912,-68.872 l -4.04,-14.568 c -1.133,-4.074 -5.241,-6.562 -9.376,-5.68 L 83.582,54.865 c -25.777,5.614 -44.196,28.379 -44.304,54.76 l 0,323.6 c -9.555,3.378 -15.958,12.394 -16,22.528 l 0,16 c 0,4.418 3.582,8 8,8 l 160,0 c 4.418,0 8,-3.582 8,-8 l 0,-16 c -0.042,-10.134 -6.445,-19.15 -16,-22.528 l 0,-89.096 151.344,-40.544 2.08,7.752 c 3.393,12.781 16.505,20.392 29.286,16.999 0.038,-0.01 0.076,-0.02 0.114,-0.031 l 61.816,-16.552 c 12.802,-3.435 20.395,-16.598 16.96,-29.4 0,0 0,0 0,0 l -2.08,-7.76 7.744,-2.072 c 4.268,-1.142 6.802,-5.528 5.659,-9.796 z m -400.923,-54.972 112,0 0,224 -112,0 0,-224 z m 128,256 -144,0 0,-8 c 0,-4.418 3.582,-8 8,-8 l 128,0 c 4.418,0 8,3.582 8,8 l 0,8 z m -16,-331.784 0,59.784 -112,0 0,-82.128 C 55.359,90.781 68.514,74.52 86.926,70.505 l 248.8,-53.112 2.024,7.304 c 5.839,21.252 -6.577,43.231 -27.792,49.2 l -125.136,34.968 c -10.356,2.912 -17.52,12.347 -17.544,23.104 z m 256.496,164.32 0,0.024 -61.816,16.568 c -4.266,1.149 -8.656,-1.378 -9.805,-5.645 -0.001,-0.004 -0.002,-0.008 -0.003,-0.011 l -2.064,-7.728 77.28,-20.704 2.072,7.728 c 1.124,4.26 -1.408,8.628 -5.664,9.768 z m -240.496,31.288 0,-82.8 180.584,-48.416 c 29.862,-7.953 60.531,9.748 68.584,39.584 l 6.232,23.2 -255.4,68.432 z"
           id="path4228"
           style="fill:#0063a7;fill-opacity:1" /></g></g><g
       style="fill:#0063a7;fill-opacity:1"
       id="g4230"><g
         style="fill:#0063a7;fill-opacity:1"
         id="g4232"><path
           style="fill:#0063a7;fill-opacity:1"
           d="m 413.862,347.209 -6.584,-9.536 -6.584,9.536 c -4.24,6.144 -41.416,60.648 -41.416,84.544 0,26.51 21.49,48 48,48 26.51,0 48,-21.49 48,-48 0,-23.896 -37.176,-78.4 -41.416,-84.544 z m -6.584,116.544 c -17.673,0 -32,-14.327 -32,-32 0,-12.296 17.6,-43.424 32,-65.6 14.4,22.184 32,53.312 32,65.6 0,17.673 -14.327,32 -32,32 z"
           id="path4234" /></g></g></g><g
     transform="translate(-23.278,-447.753)"
     id="g4236" /><g
     transform="translate(-23.278,-447.753)"
     id="g4238" /><g
     transform="translate(-23.278,-447.753)"
     id="g4240" /><g
     transform="translate(-23.278,-447.753)"
     id="g4242" /><g
     transform="translate(-23.278,-447.753)"
     id="g4244" /><g
     transform="translate(-23.278,-447.753)"
     id="g4246" /><g
     transform="translate(-23.278,-447.753)"
     id="g4248" /><g
     transform="translate(-23.278,-447.753)"
     id="g4250" /><g
     transform="translate(-23.278,-447.753)"
     id="g4252" /><g
     transform="translate(-23.278,-447.753)"
     id="g4254" /><g
     transform="translate(-23.278,-447.753)"
     id="g4256" /><g
     transform="translate(-23.278,-447.753)"
     id="g4258" /><g
     transform="translate(-23.278,-447.753)"
     id="g4260" /><g
     transform="translate(-23.278,-447.753)"
     id="g4262" /><g
     transform="translate(-23.278,-447.753)"
     id="g4264" /></svg>