<?xml version="1.0" encoding="UTF-8" standalone="no"?>
<svg
   xmlns:dc="http://purl.org/dc/elements/1.1/"
   xmlns:cc="http://creativecommons.org/ns#"
   xmlns:rdf="http://www.w3.org/1999/02/22-rdf-syntax-ns#"
   xmlns:svg="http://www.w3.org/2000/svg"
   xmlns="http://www.w3.org/2000/svg"
   height="31.999998"
   width="32.525311"
   xml:space="preserve"
   viewBox="0 0 32.525312 32"
   y="0px"
   x="0px"
   id="Capa_1"
   version="1.1"><metadata
     id="metadata4433"><rdf:RDF><cc:Work
         rdf:about=""><dc:format>image/svg+xml</dc:format><dc:type
           rdf:resource="http://purl.org/dc/dcmitype/StillImage" /><dc:title></dc:title></cc:Work></rdf:RDF></metadata><defs
     id="defs4431" /><g
     transform="matrix(0.06352584,0,0,0.06352584,0,-0.26261582)"
     style="fill:#0063a7;fill-opacity:1"
     id="g4975"><g
       style="fill:#0063a7;fill-opacity:1"
       id="g4387"><g
         style="fill:#0063a7;fill-opacity:1"
         id="g4389"><g
           style="fill:#0063a7;fill-opacity:1"
           id="g4391"><path
             style="fill:#0063a7;fill-opacity:1"
             d="m 501.288,410.692 -13.209,-19.469 c -0.001,-0.002 -0.003,-0.004 -0.005,-0.006 l -46.052,-67.87 0,-177.408 c 0.214,-1.169 0.219,-2.382 0,-3.583 l 0,-59.013 0,-0.058 c 0,-21.586 -17.562,-39.148 -39.149,-39.148 l -0.057,0 -25.797,0 0,-7.564 c 0,-17.887 -14.552,-32.439 -32.439,-32.439 l -0.127,0 c -17.886,10e-4 -32.438,14.552 -32.438,32.439 l 0,7.563 -182.009,0 0,-7.563 c 0,-17.887 -14.552,-32.439 -32.439,-32.439 l -0.127,0 C 79.555,4.135 65.003,18.686 65.003,36.573 l 0,7.563 -25.797,0 -0.057,0 C 17.562,44.137 0,61.699 0,83.285 l 0,0.058 0,60.799 0,0.064 c 0,0.007 0,0.013 0,0.019 l 0,212.01 c 0,10.041 2.933,19.404 7.97,27.3 0.086,0.148 0.165,0.299 0.26,0.444 0.104,0.16 0.22,0.309 0.325,0.467 0.246,0.369 0.503,0.727 0.757,1.087 0.717,1.018 1.462,2.008 2.243,2.962 0.032,0.039 0.063,0.081 0.095,0.12 0.47,0.571 0.956,1.123 1.447,1.67 0.082,0.091 0.164,0.183 0.246,0.274 4.905,5.382 10.85,9.597 17.435,12.433 0.196,0.084 0.392,0.17 0.59,0.252 0.581,0.242 1.166,0.474 1.757,0.694 0.317,0.118 0.637,0.229 0.957,0.342 0.529,0.185 1.057,0.373 1.594,0.54 0.571,0.179 1.149,0.34 1.728,0.498 0.557,0.153 1.117,0.298 1.68,0.432 0.64,0.152 1.281,0.301 1.928,0.428 0.358,0.071 0.719,0.13 1.08,0.193 0.616,0.108 1.234,0.207 1.856,0.292 0.356,0.049 0.713,0.095 1.071,0.136 0.668,0.077 1.339,0.138 2.013,0.189 0.309,0.023 0.617,0.053 0.927,0.071 0.98,0.056 1.966,0.093 2.96,0.093 l 0.001,0 297.581,0 36.589,53.925 c 0.004,0.005 0.006,0.011 0.01,0.017 l 13.21,19.467 c 9.331,13.754 23.46,23.05 39.784,26.176 3.946,0.756 7.904,1.129 11.836,1.129 12.33,0 24.376,-3.675 34.805,-10.751 l 0,-0.001 c 28.391,-19.262 35.815,-58.032 16.553,-86.422 z M 332.016,64.138 l 0,-20.001 0,-7.564 c 0,-6.857 5.579,-12.438 12.438,-12.438 l 0.127,0 c 6.857,0 12.438,5.579 12.438,12.438 l 0,7.563 0,20.001 0,9.563 c 0,6.857 -5.579,12.438 -12.438,12.438 l -0.127,0 c -6.857,0 -12.438,-5.579 -12.438,-12.438 l 0,-9.562 z m -247.012,0 0,-20.001 0,-7.564 c 0,-6.857 5.579,-12.438 12.438,-12.438 l 0.127,0 c 6.857,0 12.438,5.579 12.438,12.438 l 0,7.563 0,20.001 0,9.563 c 0,6.857 -5.579,12.438 -12.438,12.438 l -0.127,0 C 90.584,86.139 85.004,80.56 85.004,73.701 l 0,-9.563 z M 20.001,83.343 c 0,-10.589 8.615,-19.205 19.205,-19.205 l 25.797,0 0,9.563 c 0,17.887 14.552,32.439 32.439,32.439 l 0.127,0 c 17.887,0 32.439,-14.552 32.439,-32.439 l 0,-9.563 182.009,0 0,9.563 c 0,17.887 14.552,32.439 32.439,32.439 l 0.127,0 c 17.887,0 32.439,-14.552 32.439,-32.439 l 0,-9.563 25.797,0 c 10.59,0 19.205,8.615 19.205,19.205 l 0,50.798 -402.023,0 0,-50.798 z m 0.743,279.608 c -0.481,-2.164 -0.743,-4.409 -0.743,-6.715 l 0,-192.616 40.257,28.869 c 4.488,3.218 10.736,2.189 13.955,-2.3 3.219,-4.487 2.189,-10.736 -2.299,-13.954 l -30.807,-22.093 359.977,0 -62.292,44.67 -45.853,-11.103 c -5.544,-1.342 -11.432,-0.275 -16.153,2.929 -4.72,3.202 -7.887,8.278 -8.688,13.927 l -5.686,40.074 -1.413,9.961 -9.538,6.84 -12.007,8.61 c -10.979,7.875 -25.732,7.872 -36.712,10e-4 L 190.35,261.165 173.3,248.938 132.835,219.92 c -4.489,-3.219 -10.737,-2.189 -13.955,2.3 -3.218,4.487 -2.189,10.736 2.299,13.954 l 35.315,25.325 -135.75,101.452 z m 401.277,-199.211 0,130.128 -53.012,-78.13 c -2.182,-3.216 -4.843,-6.022 -7.865,-8.343 l 60.877,-43.655 z m -64.489,70.705 c -13.519,18.751 -32.162,33.314 -53.422,42.003 -5.334,2.18 -10.83,3.997 -16.454,5.41 l -5.074,-7.478 c -0.279,-0.412 -0.538,-0.834 -0.776,-1.266 -1.257,-2.281 -1.919,-4.823 -1.966,-7.415 -0.015,-0.844 0.023,-1.693 0.143,-2.54 l 3.503,-24.686 4.412,-31.096 c 0.007,-0.051 0.017,-0.119 0.116,-0.187 0.058,-0.039 0.105,-0.051 0.144,-0.051 0.028,0 0.052,0.006 0.073,0.012 l 29.106,7.046 25.653,6.21 c 0.002,0 0.004,10e-4 0.005,10e-4 3.867,0.938 7.228,3.267 9.462,6.559 l 5.075,7.478 z M 50.92,387.153 l 0,0 c -0.002,10e-4 -0.005,10e-4 -0.007,10e-4 -0.496,0 -0.988,-0.014 -1.478,-0.038 -0.166,-0.008 -0.33,-0.022 -0.495,-0.032 -0.327,-0.021 -0.654,-0.044 -0.978,-0.075 -0.189,-0.018 -0.377,-0.04 -0.565,-0.062 -0.304,-0.034 -0.607,-0.072 -0.908,-0.116 -0.185,-0.027 -0.37,-0.055 -0.554,-0.085 -0.312,-0.051 -0.623,-0.107 -0.932,-0.167 -0.163,-0.031 -0.326,-0.063 -0.487,-0.097 -0.362,-0.077 -0.722,-0.161 -1.08,-0.25 -0.102,-0.025 -0.205,-0.048 -0.306,-0.075 -4.421,-1.152 -8.46,-3.258 -11.883,-6.088 l 142.294,-106.343 17.542,12.58 c 8.975,6.436 19.494,9.653 30.011,9.653 10.517,0 21.036,-3.218 30.011,-9.654 l 11.118,-7.972 c 0.98,2.542 2.252,4.985 3.808,7.278 l 8.887,13.1 c 10e-4,10e-4 0.002,0.003 0.003,0.004 l 60.008,88.439 -284.009,0 z M 396.035,441.59 372.671,407.155 359.1,387.154 299.497,299.31 c 0.379,-0.116 0.755,-0.241 1.133,-0.36 7.408,-2.339 14.598,-5.271 21.494,-8.76 2.505,-1.267 4.97,-2.609 7.394,-4.019 l 13.586,20.022 35.379,52.143 5.418,7.986 c 1.934,2.851 5.081,4.387 8.284,4.387 0.734,0 1.47,-0.082 2.196,-0.246 1.186,-0.268 2.343,-0.757 3.41,-1.48 4.57,-3.102 5.761,-9.32 2.66,-13.891 L 393.202,344.407 346.07,274.94 c 8.591,-6.744 16.427,-14.468 23.303,-23.042 l 52.648,77.594 19.933,29.378 23.957,35.309 -69.876,47.411 z m 77.468,38.977 c -9.331,6.332 -20.571,8.651 -31.648,6.528 -1.384,-0.265 -2.746,-0.596 -4.08,-0.989 -1.846,-0.545 -3.637,-1.219 -5.372,-1.999 -0.773,-0.348 -1.538,-0.71 -2.286,-1.103 -0.069,-0.036 -0.135,-0.077 -0.204,-0.114 -1.141,-0.607 -2.255,-1.262 -3.333,-1.972 -0.152,-0.1 -0.298,-0.21 -0.449,-0.312 -0.416,-0.281 -0.832,-0.562 -1.237,-0.858 -0.024,-0.018 -0.047,-0.037 -0.072,-0.055 -3.838,-2.818 -7.207,-6.302 -9.961,-10.361 l -6.634,-9.776 -0.96,-1.415 69.875,-47.411 7.595,11.194 c 13.07,19.263 8.031,45.57 -11.234,58.643 z"
             id="path4393" /><path
             style="fill:#0063a7;fill-opacity:1"
             d="m 106.745,203.072 c -0.25,-0.61 -0.56,-1.19 -0.92,-1.73 -0.37,-0.55 -0.78,-1.06 -1.25,-1.52 -0.46,-0.46 -0.97,-0.88 -1.52,-1.24 -0.54,-0.36 -1.12,-0.67 -1.72,-0.92 -0.6,-0.25 -1.23,-0.44 -1.87,-0.57 -1.29,-0.26 -2.62,-0.26 -3.91,0 -0.64,0.13 -1.27,0.32 -1.87,0.57 -0.6,0.25 -1.19,0.56 -1.73,0.92 -0.55,0.36 -1.06,0.78 -1.52,1.24 -0.46,0.46 -0.88,0.97 -1.24,1.52 -0.36,0.54 -0.67,1.12 -0.92,1.73 -0.25,0.6 -0.44,1.229 -0.57,1.87 -0.13,0.64 -0.2,1.3 -0.2,1.949 0,0.65 0.07,1.311 0.2,1.96 0.13,0.631 0.32,1.261 0.57,1.87 0.25,0.601 0.56,1.181 0.92,1.721 0.36,0.55 0.78,1.06 1.24,1.52 0.46,0.46 0.98,0.88 1.52,1.25 0.54,0.36 1.13,0.67 1.73,0.92 0.6,0.25 1.23,0.44 1.87,0.57 0.64,0.13 1.3,0.189 1.95,0.189 0.65,0 1.31,-0.06 1.96,-0.189 0.64,-0.13 1.27,-0.32 1.87,-0.57 0.6,-0.25 1.18,-0.56 1.72,-0.92 0.55,-0.37 1.06,-0.79 1.52,-1.25 0.46,-0.46 0.88,-0.97 1.25,-1.52 0.36,-0.54 0.67,-1.12 0.92,-1.721 0.25,-0.609 0.44,-1.239 0.57,-1.87 0.13,-0.649 0.19,-1.31 0.19,-1.96 0,-0.649 -0.06,-1.31 -0.19,-1.949 -0.13,-0.64 -0.32,-1.27 -0.57,-1.87 z"
             id="path4395" /><path
             style="fill:#0063a7;fill-opacity:1"
             d="m 422.771,388.371 c -0.25,-0.61 -0.56,-1.19 -0.92,-1.73 -0.36,-0.55 -0.78,-1.06 -1.24,-1.52 -0.46,-0.46 -0.97,-0.88 -1.52,-1.25 -0.54,-0.351 -1.12,-0.66 -1.72,-0.91 -0.61,-0.25 -1.24,-0.45 -1.87,-0.57 -1.3,-0.26 -2.62,-0.26 -3.91,0 -0.64,0.12 -1.27,0.32 -1.87,0.57 -0.61,0.25 -1.19,0.56 -1.73,0.91 -0.55,0.37 -1.06,0.79 -1.52,1.25 -0.46,0.46 -0.88,0.97 -1.24,1.52 -0.36,0.54 -0.67,1.12 -0.92,1.73 -0.25,0.6 -0.44,1.229 -0.57,1.87 -0.13,0.64 -0.2,1.3 -0.2,1.949 0,0.65 0.07,1.311 0.2,1.96 0.13,0.631 0.32,1.261 0.57,1.87 0.25,0.601 0.56,1.181 0.92,1.721 0.36,0.55 0.78,1.06 1.24,1.52 0.46,0.46 0.97,0.88 1.52,1.24 0.54,0.359 1.12,0.67 1.73,0.92 0.6,0.25 1.23,0.45 1.87,0.57 0.505,0.103 1.022,0.155 1.537,0.178 0.138,0.006 0.276,0.021 0.413,0.021 0.65,0 1.31,-0.069 1.96,-0.199 0.63,-0.12 1.26,-0.32 1.87,-0.57 0.6,-0.25 1.18,-0.561 1.72,-0.92 0.55,-0.36 1.06,-0.78 1.52,-1.24 0.46,-0.46 0.88,-0.97 1.24,-1.52 0.306,-0.459 0.567,-0.951 0.795,-1.457 0.04,-0.089 0.088,-0.174 0.125,-0.264 0.25,-0.609 0.45,-1.239 0.57,-1.87 0.13,-0.649 0.2,-1.31 0.2,-1.96 0,-0.649 -0.07,-1.31 -0.2,-1.949 -0.12,-0.64 -0.32,-1.27 -0.57,-1.87 z"
             id="path4397" /></g></g></g></g><g
     transform="translate(0,-475.866)"
     id="g4399" /><g
     transform="translate(0,-475.866)"
     id="g4401" /><g
     transform="translate(0,-475.866)"
     id="g4403" /><g
     transform="translate(0,-475.866)"
     id="g4405" /><g
     transform="translate(0,-475.866)"
     id="g4407" /><g
     transform="translate(0,-475.866)"
     id="g4409" /><g
     transform="translate(0,-475.866)"
     id="g4411" /><g
     transform="translate(0,-475.866)"
     id="g4413" /><g
     transform="translate(0,-475.866)"
     id="g4415" /><g
     transform="translate(0,-475.866)"
     id="g4417" /><g
     transform="translate(0,-475.866)"
     id="g4419" /><g
     transform="translate(0,-475.866)"
     id="g4421" /><g
     transform="translate(0,-475.866)"
     id="g4423" /><g
     transform="translate(0,-475.866)"
     id="g4425" /><g
     transform="translate(0,-475.866)"
     id="g4427" /></svg>